<svg class="main-svg" xmlns="http://www.w3.org/2000/svg" xmlns:xlink="http://www.w3.org/1999/xlink" width="700" height="500" style="" viewBox="0 0 700 500"><rect x="0" y="0" width="700" height="500" style="fill: rgb(255, 255, 255); fill-opacity: 1;"/><defs id="defs-01dcf8"><g class="clips"><clipPath id="clip01dcf8xyplot" class="plotclip"><rect width="540" height="320"/></clipPath><clipPath class="axesclip" id="clip01dcf8x"><rect x="80" y="0" width="540" height="500"/></clipPath><clipPath class="axesclip" id="clip01dcf8y"><rect x="0" y="100" width="700" height="320"/></clipPath><clipPath class="axesclip" id="clip01dcf8xy"><rect x="80" y="100" width="540" height="320"/></clipPath></g><g class="gradients"/><g class="patterns"/></defs><g class="bglayer"><rect class="bg" x="80" y="100" width="540" height="320" style="fill: rgb(229, 236, 246); fill-opacity: 1; stroke-width: 0;"/></g><g class="layer-below"><g class="imagelayer"/><g class="shapelayer"/></g><g class="cartesianlayer"><g class="subplot xy"><g class="layer-subplot"><g class="shapelayer"/><g class="imagelayer"/></g><g class="gridlayer"><g class="x"><path class="xgrid crisp" transform="translate(209.39,0)" d="M0,100v320" style="stroke: rgb(255, 255, 255); stroke-opacity: 1; stroke-width: 1px;"/><path class="xgrid crisp" transform="translate(304.64,0)" d="M0,100v320" style="stroke: rgb(255, 255, 255); stroke-opacity: 1; stroke-width: 1px;"/><path class="xgrid crisp" transform="translate(399.9,0)" d="M0,100v320" style="stroke: rgb(255, 255, 255); stroke-opacity: 1; stroke-width: 1px;"/><path class="xgrid crisp" transform="translate(495.15,0)" d="M0,100v320" style="stroke: rgb(255, 255, 255); stroke-opacity: 1; stroke-width: 1px;"/><path class="xgrid crisp" transform="translate(590.4,0)" d="M0,100v320" style="stroke: rgb(255, 255, 255); stroke-opacity: 1; stroke-width: 1px;"/></g><g class="y"><path class="ygrid crisp" transform="translate(0,340.52)" d="M80,0h540" style="stroke: rgb(255, 255, 255); stroke-opacity: 1; stroke-width: 1px;"/><path class="ygrid crisp" transform="translate(0,285.65)" d="M80,0h540" style="stroke: rgb(255, 255, 255); stroke-opacity: 1; stroke-width: 1px;"/><path class="ygrid crisp" transform="translate(0,230.78)" d="M80,0h540" style="stroke: rgb(255, 255, 255); stroke-opacity: 1; stroke-width: 1px;"/><path class="ygrid crisp" transform="translate(0,175.91)" d="M80,0h540" style="stroke: rgb(255, 255, 255); stroke-opacity: 1; stroke-width: 1px;"/><path class="ygrid crisp" transform="translate(0,121.03)" d="M80,0h540" style="stroke: rgb(255, 255, 255); stroke-opacity: 1; stroke-width: 1px;"/></g></g><g class="zerolinelayer"><path class="xzl zl crisp" transform="translate(114.14,0)" d="M0,100v320" style="stroke: rgb(255, 255, 255); stroke-opacity: 1; stroke-width: 2px;"/><path class="yzl zl crisp" transform="translate(0,395.39)" d="M80,0h540" style="stroke: rgb(255, 255, 255); stroke-opacity: 1; stroke-width: 2px;"/></g><path class="xlines-below"/><path class="ylines-below"/><g class="overlines-below"/><g class="xaxislayer-below"/><g class="yaxislayer-below"/><g class="overaxes-below"/><g class="plot" transform="translate(80,100)" clip-path="url(#clip01dcf8xyplot)"><g class="scatterlayer mlayer"><g class="trace scatter trace437af2" style="stroke-miterlimit: 2; opacity: 1;"><g class="fills"/><g class="errorbars"/><g class="lines"/><g class="points"><path class="point" transform="translate(435.26,288.77)" d="M6.58,0A6.58,6.58 0 1,1 0,-6.58A6.58,6.58 0 0,1 6.58,0Z" style="opacity: 0.6; stroke-width: 1px; fill: rgb(107, 205, 90); fill-opacity: 1; stroke: rgb(255, 255, 255); stroke-opacity: 1;"/><path class="point" transform="translate(406.41,133.62)" d="M4.54,0A4.54,4.54 0 1,1 0,-4.54A4.54,4.54 0 0,1 4.54,0Z" style="opacity: 0.6; stroke-width: 1px; fill: rgb(190, 223, 42); fill-opacity: 1; stroke: rgb(255, 255, 255); stroke-opacity: 1;"/><path class="point" transform="translate(471.79,47.14)" d="M14.29,0A14.29,14.29 0 1,1 0,-14.29A14.29,14.29 0 0,1 14.29,0Z" style="opacity: 0.6; stroke-width: 1px; fill: rgb(45, 174, 127); fill-opacity: 1; stroke: rgb(255, 255, 255); stroke-opacity: 1;"/><path class="point" transform="translate(430.47,83.59)" d="M1.88,0A1.88,1.88 0 1,1 0,-1.88A1.88,1.88 0 0,1 1.88,0Z" style="opacity: 0.6; stroke-width: 1px; fill: rgb(74, 191, 109); fill-opacity: 1; stroke: rgb(255, 255, 255); stroke-opacity: 1;"/><path class="point" transform="translate(322.35,153.92)" d="M10.98,0A10.98,10.98 0 1,1 0,-10.98A10.98,10.98 0 0,1 10.98,0Z" style="opacity: 0.6; stroke-width: 1px; fill: rgb(47, 108, 142); fill-opacity: 1; stroke: rgb(255, 255, 255); stroke-opacity: 1;"/><path class="point" transform="translate(94.27,243.06)" d="M14.22,0A14.22,14.22 0 1,1 0,-14.22A14.22,14.22 0 0,1 14.22,0Z" style="opacity: 0.6; stroke-width: 1px; fill: rgb(251, 231, 37); fill-opacity: 1; stroke: rgb(255, 255, 255); stroke-opacity: 1;"/><path class="point" transform="translate(169.15,262.54)" d="M6.14,0A6.14,6.14 0 1,1 0,-6.14A6.14,6.14 0 0,1 6.14,0Z" style="opacity: 0.6; stroke-width: 1px; fill: rgb(33, 151, 138); fill-opacity: 1; stroke: rgb(255, 255, 255); stroke-opacity: 1;"/><path class="point" transform="translate(86.75,274.22)" d="M13.18,0A13.18,13.18 0 1,1 0,-13.18A13.18,13.18 0 0,1 13.18,0Z" style="opacity: 0.6; stroke-width: 1px; fill: rgb(72, 40, 120); fill-opacity: 1; stroke: rgb(255, 255, 255); stroke-opacity: 1;"/><path class="point" transform="translate(295.72,155.9)" d="M7.95,0A7.95,7.95 0 1,1 0,-7.95A7.95,7.95 0 0,1 7.95,0Z" style="opacity: 0.6; stroke-width: 1px; fill: rgb(84, 196, 103); fill-opacity: 1; stroke: rgb(255, 255, 255); stroke-opacity: 1;"/><path class="point" transform="translate(38.94,114.44)" d="M0.54,0A0.54,0.54 0 1,1 0,-0.54A0.54,0.54 0 0,1 0.54,0Z" style="opacity: 0.6; stroke-width: 1px; fill: rgb(68, 189, 112); fill-opacity: 1; stroke: rgb(255, 255, 255); stroke-opacity: 1;"/><path class="point" transform="translate(302.2,288.69)" d="M12.25,0A12.25,12.25 0 1,1 0,-12.25A12.25,12.25 0 0,1 12.25,0Z" style="opacity: 0.6; stroke-width: 1px; fill: rgb(41, 122, 142); fill-opacity: 1; stroke: rgb(255, 255, 255); stroke-opacity: 1;"/><path class="point" transform="translate(488.36,177.26)" d="M3.31,0A3.31,3.31 0 1,1 0,-3.31A3.31,3.31 0 0,1 3.31,0Z" style="opacity: 0.6; stroke-width: 1px; fill: rgb(35, 162, 134); fill-opacity: 1; stroke: rgb(255, 255, 255); stroke-opacity: 1;"/><path class="point" transform="translate(251.94,86.91)" d="M2.04,0A2.04,2.04 0 1,1 0,-2.04A2.04,2.04 0 0,1 2.04,0Z" style="opacity: 0.6; stroke-width: 1px; fill: rgb(43, 119, 142); fill-opacity: 1; stroke: rgb(255, 255, 255); stroke-opacity: 1;"/><path class="point" transform="translate(201.56,245.37)" d="M2.75,0A2.75,2.75 0 1,1 0,-2.75A2.75,2.75 0 0,1 2.75,0Z" style="opacity: 0.6; stroke-width: 1px; fill: rgb(52, 181, 122); fill-opacity: 1; stroke: rgb(255, 255, 255); stroke-opacity: 1;"/><path class="point" transform="translate(191.92,186.88)" d="M10.44,0A10.44,10.44 0 1,1 0,-10.44A10.44,10.44 0 0,1 10.44,0Z" style="opacity: 0.6; stroke-width: 1px; fill: rgb(187, 223, 42); fill-opacity: 1; stroke: rgb(255, 255, 255); stroke-opacity: 1;"/><path class="point" transform="translate(245.77,65.53)" d="M8.07,0A8.07,8.07 0 1,1 0,-8.07A8.07,8.07 0 0,1 8.07,0Z" style="opacity: 0.6; stroke-width: 1px; fill: rgb(72, 191, 110); fill-opacity: 1; stroke: rgb(255, 255, 255); stroke-opacity: 1;"/><path class="point" transform="translate(419.12,69.36)" d="M6.69,0A6.69,6.69 0 1,1 0,-6.69A6.69,6.69 0 0,1 6.69,0Z" style="opacity: 0.6; stroke-width: 1px; fill: rgb(177, 221, 45); fill-opacity: 1; stroke: rgb(255, 255, 255); stroke-opacity: 1;"/><path class="point" transform="translate(383.07,117.6)" d="M6.7,0A6.7,6.7 0 1,1 0,-6.7A6.7,6.7 0 0,1 6.7,0Z" style="opacity: 0.6; stroke-width: 1px; fill: rgb(39, 128, 142); fill-opacity: 1; stroke: rgb(255, 255, 255); stroke-opacity: 1;"/><path class="point" transform="translate(429.57,236.43)" d="M7,0A7,7 0 1,1 0,-7A7,7 0 0,1 7,0Z" style="opacity: 0.6; stroke-width: 1px; fill: rgb(145, 214, 66); fill-opacity: 1; stroke: rgb(255, 255, 255); stroke-opacity: 1;"/><path class="point" transform="translate(195.98,198.11)" d="M13.84,0A13.84,13.84 0 1,1 0,-13.84A13.84,13.84 0 0,1 13.84,0Z" style="opacity: 0.6; stroke-width: 1px; fill: rgb(69, 49, 125); fill-opacity: 1; stroke: rgb(255, 255, 255); stroke-opacity: 1;"/><path class="point" transform="translate(218.05,34.16)" d="M4.97,0A4.97,4.97 0 1,1 0,-4.97A4.97,4.97 0 0,1 4.97,0Z" style="opacity: 0.6; stroke-width: 1px; fill: rgb(55, 89, 140); fill-opacity: 1; stroke: rgb(255, 255, 255); stroke-opacity: 1;"/><path class="point" transform="translate(135.29,89.5)" d="M2.16,0A2.16,2.16 0 1,1 0,-2.16A2.16,2.16 0 0,1 2.16,0Z" style="opacity: 0.6; stroke-width: 1px; fill: rgb(235, 229, 39); fill-opacity: 1; stroke: rgb(255, 255, 255); stroke-opacity: 1;"/><path class="point" transform="translate(417.43,117.48)" d="M1.82,0A1.82,1.82 0 1,1 0,-1.82A1.82,1.82 0 0,1 1.82,0Z" style="opacity: 0.6; stroke-width: 1px; fill: rgb(51, 98, 141); fill-opacity: 1; stroke: rgb(255, 255, 255); stroke-opacity: 1;"/><path class="point" transform="translate(434.16,181.97)" d="M6.2,0A6.2,6.2 0 1,1 0,-6.2A6.2,6.2 0 0,1 6.2,0Z" style="opacity: 0.6; stroke-width: 1px; fill: rgb(43, 118, 142); fill-opacity: 1; stroke: rgb(255, 255, 255); stroke-opacity: 1;"/><path class="point" transform="translate(463.07,261.09)" d="M10.36,0A10.36,10.36 0 1,1 0,-10.36A10.36,10.36 0 0,1 10.36,0Z" style="opacity: 0.6; stroke-width: 1px; fill: rgb(70, 19, 101); fill-opacity: 1; stroke: rgb(255, 255, 255); stroke-opacity: 1;"/><path class="point" transform="translate(252.34,135.47)" d="M0.88,0A0.88,0.88 0 1,1 0,-0.88A0.88,0.88 0 0,1 0.88,0Z" style="opacity: 0.6; stroke-width: 1px; fill: rgb(40, 169, 130); fill-opacity: 1; stroke: rgb(255, 255, 255); stroke-opacity: 1;"/><path class="point" transform="translate(264.94,254.11)" d="M11.93,0A11.93,11.93 0 1,1 0,-11.93A11.93,11.93 0 0,1 11.93,0Z" style="opacity: 0.6; stroke-width: 1px; fill: rgb(205, 225, 41); fill-opacity: 1; stroke: rgb(255, 255, 255); stroke-opacity: 1;"/><path class="point" transform="translate(226.67,234.5)" d="M14.01,0A14.01,14.01 0 1,1 0,-14.01A14.01,14.01 0 0,1 14.01,0Z" style="opacity: 0.6; stroke-width: 1px; fill: rgb(106, 204, 91); fill-opacity: 1; stroke: rgb(255, 255, 255); stroke-opacity: 1;"/><path class="point" transform="translate(97.38,112.68)" d="M9.97,0A9.97,9.97 0 1,1 0,-9.97A9.97,9.97 0 0,1 9.97,0Z" style="opacity: 0.6; stroke-width: 1px; fill: rgb(141, 213, 68); fill-opacity: 1; stroke: rgb(255, 255, 255); stroke-opacity: 1;"/><path class="point" transform="translate(154.21,37.38)" d="M12,0A12,12 0 1,1 0,-12A12,12 0 0,1 12,0Z" style="opacity: 0.6; stroke-width: 1px; fill: rgb(72, 36, 116); fill-opacity: 1; stroke: rgb(255, 255, 255); stroke-opacity: 1;"/><path class="point" transform="translate(340.41,278.34)" d="M2.89,0A2.89,2.89 0 1,1 0,-2.89A2.89,2.89 0 0,1 2.89,0Z" style="opacity: 0.6; stroke-width: 1px; fill: rgb(149, 215, 63); fill-opacity: 1; stroke: rgb(255, 255, 255); stroke-opacity: 1;"/><path class="point" transform="translate(129.72,222.77)" d="M4.28,0A4.28,4.28 0 1,1 0,-4.28A4.28,4.28 0 0,1 4.28,0Z" style="opacity: 0.6; stroke-width: 1px; fill: rgb(44, 117, 142); fill-opacity: 1; stroke: rgb(255, 255, 255); stroke-opacity: 1;"/><path class="point" transform="translate(121.89,96.33)" d="M5.37,0A5.37,5.37 0 1,1 0,-5.37A5.37,5.37 0 0,1 5.37,0Z" style="opacity: 0.6; stroke-width: 1px; fill: rgb(164, 218, 54); fill-opacity: 1; stroke: rgb(255, 255, 255); stroke-opacity: 1;"/><path class="point" transform="translate(488.96,218.97)" d="M5.46,0A5.46,5.46 0 1,1 0,-5.46A5.46,5.46 0 0,1 5.46,0Z" style="opacity: 0.6; stroke-width: 1px; fill: rgb(33, 151, 138); fill-opacity: 1; stroke: rgb(255, 255, 255); stroke-opacity: 1;"/><path class="point" transform="translate(99.09,90.8)" d="M11.56,0A11.56,11.56 0 1,1 0,-11.56A11.56,11.56 0 0,1 11.56,0Z" style="opacity: 0.6; stroke-width: 1px; fill: rgb(106, 204, 90); fill-opacity: 1; stroke: rgb(255, 255, 255); stroke-opacity: 1;"/><path class="point" transform="translate(350.15,224.28)" d="M1.93,0A1.93,1.93 0 1,1 0,-1.93A1.93,1.93 0 0,1 1.93,0Z" style="opacity: 0.6; stroke-width: 1px; fill: rgb(95, 200, 96); fill-opacity: 1; stroke: rgb(255, 255, 255); stroke-opacity: 1;"/><path class="point" transform="translate(271.41,163.96)" d="M8.86,0A8.86,8.86 0 1,1 0,-8.86A8.86,8.86 0 0,1 8.86,0Z" style="opacity: 0.6; stroke-width: 1px; fill: rgb(118, 208, 83); fill-opacity: 1; stroke: rgb(255, 255, 255); stroke-opacity: 1;"/><path class="point" transform="translate(226.54,271.75)" d="M12.85,0A12.85,12.85 0 1,1 0,-12.85A12.85,12.85 0 0,1 12.85,0Z" style="opacity: 0.6; stroke-width: 1px; fill: rgb(57, 84, 139); fill-opacity: 1; stroke: rgb(255, 255, 255); stroke-opacity: 1;"/><path class="point" transform="translate(240.43,55.36)" d="M14.83,0A14.83,14.83 0 1,1 0,-14.83A14.83,14.83 0 0,1 14.83,0Z" style="opacity: 0.6; stroke-width: 1px; fill: rgb(70, 23, 105); fill-opacity: 1; stroke: rgb(255, 255, 255); stroke-opacity: 1;"/><path class="point" transform="translate(477.24,205.45)" d="M6.41,0A6.41,6.41 0 1,1 0,-6.41A6.41,6.41 0 0,1 6.41,0Z" style="opacity: 0.6; stroke-width: 1px; fill: rgb(34, 146, 139); fill-opacity: 1; stroke: rgb(255, 255, 255); stroke-opacity: 1;"/><path class="point" transform="translate(92.74,127.43)" d="M2.4,0A2.4,2.4 0 1,1 0,-2.4A2.4,2.4 0 0,1 2.4,0Z" style="opacity: 0.6; stroke-width: 1px; fill: rgb(198, 224, 42); fill-opacity: 1; stroke: rgb(255, 255, 255); stroke-opacity: 1;"/><path class="point" transform="translate(204.86,275.9)" d="M2.63,0A2.63,2.63 0 1,1 0,-2.63A2.63,2.63 0 0,1 2.63,0Z" style="opacity: 0.6; stroke-width: 1px; fill: rgb(181, 222, 43); fill-opacity: 1; stroke: rgb(255, 255, 255); stroke-opacity: 1;"/><path class="point" transform="translate(302.98,22.08)" d="M2.18,0A2.18,2.18 0 1,1 0,-2.18A2.18,2.18 0 0,1 2.18,0Z" style="opacity: 0.6; stroke-width: 1px; fill: rgb(64, 68, 134); fill-opacity: 1; stroke: rgb(255, 255, 255); stroke-opacity: 1;"/><path class="point" transform="translate(375.17,150.36)" d="M11.99,0A11.99,11.99 0 1,1 0,-11.99A11.99,11.99 0 0,1 11.99,0Z" style="opacity: 0.6; stroke-width: 1px; fill: rgb(140, 213, 69); fill-opacity: 1; stroke: rgb(255, 255, 255); stroke-opacity: 1;"/><path class="point" transform="translate(308.26,92.17)" d="M13.77,0A13.77,13.77 0 1,1 0,-13.77A13.77,13.77 0 0,1 13.77,0Z" style="opacity: 0.6; stroke-width: 1px; fill: rgb(113, 207, 86); fill-opacity: 1; stroke: rgb(255, 255, 255); stroke-opacity: 1;"/><path class="point" transform="translate(169.03,157.16)" d="M9.64,0A9.64,9.64 0 1,1 0,-9.64A9.64,9.64 0 0,1 9.64,0Z" style="opacity: 0.6; stroke-width: 1px; fill: rgb(68, 54, 127); fill-opacity: 1; stroke: rgb(255, 255, 255); stroke-opacity: 1;"/><path class="point" transform="translate(172.97,279.2)" d="M9.79,0A9.79,9.79 0 1,1 0,-9.79A9.79,9.79 0 0,1 9.79,0Z" style="opacity: 0.6; stroke-width: 1px; fill: rgb(37, 165, 132); fill-opacity: 1; stroke: rgb(255, 255, 255); stroke-opacity: 1;"/><path class="point" transform="translate(117.11,270.35)" d="M13.55,0A13.55,13.55 0 1,1 0,-13.55A13.55,13.55 0 0,1 13.55,0Z" style="opacity: 0.6; stroke-width: 1px; fill: rgb(72, 38, 118); fill-opacity: 1; stroke: rgb(255, 255, 255); stroke-opacity: 1;"/><path class="point" transform="translate(265.46,214.65)" d="M11.76,0A11.76,11.76 0 1,1 0,-11.76A11.76,11.76 0 0,1 11.76,0Z" style="opacity: 0.6; stroke-width: 1px; fill: rgb(109, 205, 89); fill-opacity: 1; stroke: rgb(255, 255, 255); stroke-opacity: 1;"/><path class="point" transform="translate(455.74,30.07)" d="M11.26,0A11.26,11.26 0 1,1 0,-11.26A11.26,11.26 0 0,1 11.26,0Z" style="opacity: 0.6; stroke-width: 1px; fill: rgb(70, 19, 100); fill-opacity: 1; stroke: rgb(255, 255, 255); stroke-opacity: 1;"/><path class="point" transform="translate(240.71,253.09)" d="M2.22,0A2.22,2.22 0 1,1 0,-2.22A2.22,2.22 0 0,1 2.22,0Z" style="opacity: 0.6; stroke-width: 1px; fill: rgb(62, 187, 116); fill-opacity: 1; stroke: rgb(255, 255, 255); stroke-opacity: 1;"/><path class="point" transform="translate(444.16,110.22)" d="M8.54,0A8.54,8.54 0 1,1 0,-8.54A8.54,8.54 0 0,1 8.54,0Z" style="opacity: 0.6; stroke-width: 1px; fill: rgb(41, 124, 142); fill-opacity: 1; stroke: rgb(255, 255, 255); stroke-opacity: 1;"/><path class="point" transform="translate(425.83,87.48)" d="M7.44,0A7.44,7.44 0 1,1 0,-7.44A7.44,7.44 0 0,1 7.44,0Z" style="opacity: 0.6; stroke-width: 1px; fill: rgb(188, 223, 42); fill-opacity: 1; stroke: rgb(255, 255, 255); stroke-opacity: 1;"/><path class="point" transform="translate(52.49,51.5)" d="M7.33,0A7.33,7.33 0 1,1 0,-7.33A7.33,7.33 0 0,1 7.33,0Z" style="opacity: 0.6; stroke-width: 1px; fill: rgb(127, 210, 77); fill-opacity: 1; stroke: rgb(255, 255, 255); stroke-opacity: 1;"/><path class="point" transform="translate(469.79,203.74)" d="M2.89,0A2.89,2.89 0 1,1 0,-2.89A2.89,2.89 0 0,1 2.89,0Z" style="opacity: 0.6; stroke-width: 1px; fill: rgb(37, 165, 133); fill-opacity: 1; stroke: rgb(255, 255, 255); stroke-opacity: 1;"/><path class="point" transform="translate(55.3,263.68)" d="M6.81,0A6.81,6.81 0 1,1 0,-6.81A6.81,6.81 0 0,1 6.81,0Z" style="opacity: 0.6; stroke-width: 1px; fill: rgb(41, 122, 142); fill-opacity: 1; stroke: rgb(255, 255, 255); stroke-opacity: 1;"/><path class="point" transform="translate(464.68,159.56)" d="M12.95,0A12.95,12.95 0 1,1 0,-12.95A12.95,12.95 0 0,1 12.95,0Z" style="opacity: 0.6; stroke-width: 1px; fill: rgb(71, 27, 108); fill-opacity: 1; stroke: rgb(255, 255, 255); stroke-opacity: 1;"/><path class="point" transform="translate(247.6,156.03)" d="M2.7,0A2.7,2.7 0 1,1 0,-2.7A2.7,2.7 0 0,1 2.7,0Z" style="opacity: 0.6; stroke-width: 1px; fill: rgb(52, 96, 141); fill-opacity: 1; stroke: rgb(255, 255, 255); stroke-opacity: 1;"/><path class="point" transform="translate(268.2,257.1)" d="M13.28,0A13.28,13.28 0 1,1 0,-13.28A13.28,13.28 0 0,1 13.28,0Z" style="opacity: 0.6; stroke-width: 1px; fill: rgb(58, 83, 139); fill-opacity: 1; stroke: rgb(255, 255, 255); stroke-opacity: 1;"/><path class="point" transform="translate(284.75,259.92)" d="M12.27,0A12.27,12.27 0 1,1 0,-12.27A12.27,12.27 0 0,1 12.27,0Z" style="opacity: 0.6; stroke-width: 1px; fill: rgb(49, 179, 124); fill-opacity: 1; stroke: rgb(255, 255, 255); stroke-opacity: 1;"/><path class="point" transform="translate(509.31,126.66)" d="M2.95,0A2.95,2.95 0 1,1 0,-2.95A2.95,2.95 0 0,1 2.95,0Z" style="opacity: 0.6; stroke-width: 1px; fill: rgb(68, 1, 84); fill-opacity: 1; stroke: rgb(255, 255, 255); stroke-opacity: 1;"/><path class="point" transform="translate(51.19,93.34)" d="M7.52,0A7.52,7.52 0 1,1 0,-7.52A7.52,7.52 0 0,1 7.52,0Z" style="opacity: 0.6; stroke-width: 1px; fill: rgb(36, 138, 140); fill-opacity: 1; stroke: rgb(255, 255, 255); stroke-opacity: 1;"/><path class="point" transform="translate(77.18,184.98)" d="M3.21,0A3.21,3.21 0 1,1 0,-3.21A3.21,3.21 0 0,1 3.21,0Z" style="opacity: 0.6; stroke-width: 1px; fill: rgb(33, 160, 136); fill-opacity: 1; stroke: rgb(255, 255, 255); stroke-opacity: 1;"/><path class="point" transform="translate(131.37,161.72)" d="M6.03,0A6.03,6.03 0 1,1 0,-6.03A6.03,6.03 0 0,1 6.03,0Z" style="opacity: 0.6; stroke-width: 1px; fill: rgb(70, 18, 100); fill-opacity: 1; stroke: rgb(255, 255, 255); stroke-opacity: 1;"/><path class="point" transform="translate(93.83,159.34)" d="M9.39,0A9.39,9.39 0 1,1 0,-9.39A9.39,9.39 0 0,1 9.39,0Z" style="opacity: 0.6; stroke-width: 1px; fill: rgb(72, 38, 118); fill-opacity: 1; stroke: rgb(255, 255, 255); stroke-opacity: 1;"/><path class="point" transform="translate(138.63,245.56)" d="M11.06,0A11.06,11.06 0 1,1 0,-11.06A11.06,11.06 0 0,1 11.06,0Z" style="opacity: 0.6; stroke-width: 1px; fill: rgb(71, 42, 121); fill-opacity: 1; stroke: rgb(255, 255, 255); stroke-opacity: 1;"/><path class="point" transform="translate(237.77,218.54)" d="M0.48,0A0.48,0.48 0 1,1 0,-0.48A0.48,0.48 0 0,1 0.48,0Z" style="opacity: 0.6; stroke-width: 1px; fill: rgb(246, 230, 38); fill-opacity: 1; stroke: rgb(255, 255, 255); stroke-opacity: 1;"/><path class="point" transform="translate(476.39,204.6)" d="M1.48,0A1.48,1.48 0 1,1 0,-1.48A1.48,1.48 0 0,1 1.48,0Z" style="opacity: 0.6; stroke-width: 1px; fill: rgb(43, 119, 142); fill-opacity: 1; stroke: rgb(255, 255, 255); stroke-opacity: 1;"/><path class="point" transform="translate(346.65,159.51)" d="M13.58,0A13.58,13.58 0 1,1 0,-13.58A13.58,13.58 0 0,1 13.58,0Z" style="opacity: 0.6; stroke-width: 1px; fill: rgb(35, 162, 134); fill-opacity: 1; stroke: rgb(255, 255, 255); stroke-opacity: 1;"/><path class="point" transform="translate(146.7,39.22)" d="M4.8,0A4.8,4.8 0 1,1 0,-4.8A4.8,4.8 0 0,1 4.8,0Z" style="opacity: 0.6; stroke-width: 1px; fill: rgb(35, 140, 140); fill-opacity: 1; stroke: rgb(255, 255, 255); stroke-opacity: 1;"/><path class="point" transform="translate(372.07,230.37)" d="M12.34,0A12.34,12.34 0 1,1 0,-12.34A12.34,12.34 0 0,1 12.34,0Z" style="opacity: 0.6; stroke-width: 1px; fill: rgb(251, 231, 37); fill-opacity: 1; stroke: rgb(255, 255, 255); stroke-opacity: 1;"/><path class="point" transform="translate(265.05,238.09)" d="M1.48,0A1.48,1.48 0 1,1 0,-1.48A1.48,1.48 0 0,1 1.48,0Z" style="opacity: 0.6; stroke-width: 1px; fill: rgb(56, 88, 139); fill-opacity: 1; stroke: rgb(255, 255, 255); stroke-opacity: 1;"/><path class="point" transform="translate(112.11,33.9)" d="M8.16,0A8.16,8.16 0 1,1 0,-8.16A8.16,8.16 0 0,1 8.16,0Z" style="opacity: 0.6; stroke-width: 1px; fill: rgb(38, 130, 142); fill-opacity: 1; stroke: rgb(255, 255, 255); stroke-opacity: 1;"/><path class="point" transform="translate(432.47,272.55)" d="M12.21,0A12.21,12.21 0 1,1 0,-12.21A12.21,12.21 0 0,1 12.21,0Z" style="opacity: 0.6; stroke-width: 1px; fill: rgb(62, 73, 137); fill-opacity: 1; stroke: rgb(255, 255, 255); stroke-opacity: 1;"/><path class="point" transform="translate(333.84,158.54)" d="M4.95,0A4.95,4.95 0 1,1 0,-4.95A4.95,4.95 0 0,1 4.95,0Z" style="opacity: 0.6; stroke-width: 1px; fill: rgb(52, 182, 122); fill-opacity: 1; stroke: rgb(255, 255, 255); stroke-opacity: 1;"/><path class="point" transform="translate(174.4,113.8)" d="M13.8,0A13.8,13.8 0 1,1 0,-13.8A13.8,13.8 0 0,1 13.8,0Z" style="opacity: 0.6; stroke-width: 1px; fill: rgb(38, 130, 142); fill-opacity: 1; stroke: rgb(255, 255, 255); stroke-opacity: 1;"/><path class="point" transform="translate(488.96,67.33)" d="M12.34,0A12.34,12.34 0 1,1 0,-12.34A12.34,12.34 0 0,1 12.34,0Z" style="opacity: 0.6; stroke-width: 1px; fill: rgb(43, 119, 142); fill-opacity: 1; stroke: rgb(255, 255, 255); stroke-opacity: 1;"/><path class="point" transform="translate(445.98,246.54)" d="M9.18,0A9.18,9.18 0 1,1 0,-9.18A9.18,9.18 0 0,1 9.18,0Z" style="opacity: 0.6; stroke-width: 1px; fill: rgb(50, 102, 142); fill-opacity: 1; stroke: rgb(255, 255, 255); stroke-opacity: 1;"/><path class="point" transform="translate(100.34,46.91)" d="M3.03,0A3.03,3.03 0 1,1 0,-3.03A3.03,3.03 0 0,1 3.03,0Z" style="opacity: 0.6; stroke-width: 1px; fill: rgb(72, 39, 119); fill-opacity: 1; stroke: rgb(255, 255, 255); stroke-opacity: 1;"/><path class="point" transform="translate(241.83,22.04)" d="M3.66,0A3.66,3.66 0 1,1 0,-3.66A3.66,3.66 0 0,1 3.66,0Z" style="opacity: 0.6; stroke-width: 1px; fill: rgb(59, 79, 138); fill-opacity: 1; stroke: rgb(255, 255, 255); stroke-opacity: 1;"/><path class="point" transform="translate(35.9,260.71)" d="M7.12,0A7.12,7.12 0 1,1 0,-7.12A7.12,7.12 0 0,1 7.12,0Z" style="opacity: 0.6; stroke-width: 1px; fill: rgb(253, 231, 37); fill-opacity: 1; stroke: rgb(255, 255, 255); stroke-opacity: 1;"/><path class="point" transform="translate(402.35,224.98)" d="M1.9,0A1.9,1.9 0 1,1 0,-1.9A1.9,1.9 0 0,1 1.9,0Z" style="opacity: 0.6; stroke-width: 1px; fill: rgb(32, 152, 138); fill-opacity: 1; stroke: rgb(255, 255, 255); stroke-opacity: 1;"/><path class="point" transform="translate(467.89,227.64)" d="M13.2,0A13.2,13.2 0 1,1 0,-13.2A13.2,13.2 0 0,1 13.2,0Z" style="opacity: 0.6; stroke-width: 1px; fill: rgb(203, 225, 41); fill-opacity: 1; stroke: rgb(255, 255, 255); stroke-opacity: 1;"/><path class="point" transform="translate(77.9,153.6)" d="M14.7,0A14.7,14.7 0 1,1 0,-14.7A14.7,14.7 0 0,1 14.7,0Z" style="opacity: 0.6; stroke-width: 1px; fill: rgb(67, 189, 113); fill-opacity: 1; stroke: rgb(255, 255, 255); stroke-opacity: 1;"/><path class="point" transform="translate(88.93,48.18)" d="M12.03,0A12.03,12.03 0 1,1 0,-12.03A12.03,12.03 0 0,1 12.03,0Z" style="opacity: 0.6; stroke-width: 1px; fill: rgb(58, 83, 139); fill-opacity: 1; stroke: rgb(255, 255, 255); stroke-opacity: 1;"/><path class="point" transform="translate(443.66,127.84)" d="M9.92,0A9.92,9.92 0 1,1 0,-9.92A9.92,9.92 0 0,1 9.92,0Z" style="opacity: 0.6; stroke-width: 1px; fill: rgb(33, 151, 138); fill-opacity: 1; stroke: rgb(255, 255, 255); stroke-opacity: 1;"/><path class="point" transform="translate(474.54,136.12)" d="M10.4,0A10.4,10.4 0 1,1 0,-10.4A10.4,10.4 0 0,1 10.4,0Z" style="opacity: 0.6; stroke-width: 1px; fill: rgb(37, 136, 141); fill-opacity: 1; stroke: rgb(255, 255, 255); stroke-opacity: 1;"/><path class="point" transform="translate(412.04,267.54)" d="M11.19,0A11.19,11.19 0 1,1 0,-11.19A11.19,11.19 0 0,1 11.19,0Z" style="opacity: 0.6; stroke-width: 1px; fill: rgb(69, 12, 94); fill-opacity: 1; stroke: rgb(255, 255, 255); stroke-opacity: 1;"/><path class="point" transform="translate(107.03,201.43)" d="M9.28,0A9.28,9.28 0 1,1 0,-9.28A9.28,9.28 0 0,1 9.28,0Z" style="opacity: 0.6; stroke-width: 1px; fill: rgb(163, 218, 54); fill-opacity: 1; stroke: rgb(255, 255, 255); stroke-opacity: 1;"/><path class="point" transform="translate(437.81,38.38)" d="M5.26,0A5.26,5.26 0 1,1 0,-5.26A5.26,5.26 0 0,1 5.26,0Z" style="opacity: 0.6; stroke-width: 1px; fill: rgb(68, 6, 88); fill-opacity: 1; stroke: rgb(255, 255, 255); stroke-opacity: 1;"/><path class="point" transform="translate(357.92,151.33)" d="M11.66,0A11.66,11.66 0 1,1 0,-11.66A11.66,11.66 0 0,1 11.66,0Z" style="opacity: 0.6; stroke-width: 1px; fill: rgb(198, 224, 42); fill-opacity: 1; stroke: rgb(255, 255, 255); stroke-opacity: 1;"/><path class="point" transform="translate(170.54,202.87)" d="M11.93,0A11.93,11.93 0 1,1 0,-11.93A11.93,11.93 0 0,1 11.93,0Z" style="opacity: 0.6; stroke-width: 1px; fill: rgb(34, 146, 139); fill-opacity: 1; stroke: rgb(255, 255, 255); stroke-opacity: 1;"/><path class="point" transform="translate(489.09,78.59)" d="M4.85,0A4.85,4.85 0 1,1 0,-4.85A4.85,4.85 0 0,1 4.85,0Z" style="opacity: 0.6; stroke-width: 1px; fill: rgb(37, 134, 141); fill-opacity: 1; stroke: rgb(255, 255, 255); stroke-opacity: 1;"/><path class="point" transform="translate(93.44,132.54)" d="M6.96,0A6.96,6.96 0 1,1 0,-6.96A6.96,6.96 0 0,1 6.96,0Z" style="opacity: 0.6; stroke-width: 1px; fill: rgb(65, 64, 132); fill-opacity: 1; stroke: rgb(255, 255, 255); stroke-opacity: 1;"/><path class="point" transform="translate(326.94,245.61)" d="M8.23,0A8.23,8.23 0 1,1 0,-8.23A8.23,8.23 0 0,1 8.23,0Z" style="opacity: 0.6; stroke-width: 1px; fill: rgb(47, 108, 142); fill-opacity: 1; stroke: rgb(255, 255, 255); stroke-opacity: 1;"/><path class="point" transform="translate(50.9,58)" d="M4.55,0A4.55,4.55 0 1,1 0,-4.55A4.55,4.55 0 0,1 4.55,0Z" style="opacity: 0.6; stroke-width: 1px; fill: rgb(72, 36, 117); fill-opacity: 1; stroke: rgb(255, 255, 255); stroke-opacity: 1;"/><path class="point" transform="translate(235.83,59.06)" d="M0.41,0A0.41,0.41 0 1,1 0,-0.41A0.41,0.41 0 0,1 0.41,0Z" style="opacity: 0.6; stroke-width: 1px; fill: rgb(60, 78, 138); fill-opacity: 1; stroke: rgb(255, 255, 255); stroke-opacity: 1;"/><path class="point" transform="translate(203.53,178.96)" d="M8.47,0A8.47,8.47 0 1,1 0,-8.47A8.47,8.47 0 0,1 8.47,0Z" style="opacity: 0.6; stroke-width: 1px; fill: rgb(53, 183, 121); fill-opacity: 1; stroke: rgb(255, 255, 255); stroke-opacity: 1;"/><path class="point" transform="translate(348.56,122.45)" d="M11.25,0A11.25,11.25 0 1,1 0,-11.25A11.25,11.25 0 0,1 11.25,0Z" style="opacity: 0.6; stroke-width: 1px; fill: rgb(41, 169, 130); fill-opacity: 1; stroke: rgb(255, 255, 255); stroke-opacity: 1;"/><path class="point" transform="translate(93.1,77.76)" d="M4.6,0A4.6,4.6 0 1,1 0,-4.6A4.6,4.6 0 0,1 4.6,0Z" style="opacity: 0.6; stroke-width: 1px; fill: rgb(32, 159, 137); fill-opacity: 1; stroke: rgb(255, 255, 255); stroke-opacity: 1;"/></g><g class="text"/></g></g></g><g class="overplot"/><path class="xlines-above crisp" d="M0,0" style="fill: none;"/><path class="ylines-above crisp" d="M0,0" style="fill: none;"/><g class="overlines-above"/><g class="xaxislayer-above"><g class="xtick"><text text-anchor="middle" x="0" y="433" transform="translate(114.14,0)" style="font-family: 'Open Sans', verdana, arial, sans-serif; font-size: 12px; fill: rgb(42, 63, 95); fill-opacity: 1; white-space: pre; opacity: 1;">0</text></g><g class="xtick"><text text-anchor="middle" x="0" y="433" style="font-family: 'Open Sans', verdana, arial, sans-serif; font-size: 12px; fill: rgb(42, 63, 95); fill-opacity: 1; white-space: pre; opacity: 1;" transform="translate(209.39,0)">0.2</text></g><g class="xtick"><text text-anchor="middle" x="0" y="433" style="font-family: 'Open Sans', verdana, arial, sans-serif; font-size: 12px; fill: rgb(42, 63, 95); fill-opacity: 1; white-space: pre; opacity: 1;" transform="translate(304.64,0)">0.4</text></g><g class="xtick"><text text-anchor="middle" x="0" y="433" style="font-family: 'Open Sans', verdana, arial, sans-serif; font-size: 12px; fill: rgb(42, 63, 95); fill-opacity: 1; white-space: pre; opacity: 1;" transform="translate(399.9,0)">0.6</text></g><g class="xtick"><text text-anchor="middle" x="0" y="433" style="font-family: 'Open Sans', verdana, arial, sans-serif; font-size: 12px; fill: rgb(42, 63, 95); fill-opacity: 1; white-space: pre; opacity: 1;" transform="translate(495.15,0)">0.8</text></g><g class="xtick"><text text-anchor="middle" x="0" y="433" style="font-family: 'Open Sans', verdana, arial, sans-serif; font-size: 12px; fill: rgb(42, 63, 95); fill-opacity: 1; white-space: pre; opacity: 1;" transform="translate(590.4,0)">1</text></g></g><g class="yaxislayer-above"><g class="ytick"><text text-anchor="end" x="79" y="4.199999999999999" transform="translate(0,395.39)" style="font-family: 'Open Sans', verdana, arial, sans-serif; font-size: 12px; fill: rgb(42, 63, 95); fill-opacity: 1; white-space: pre; opacity: 1;">0</text></g><g class="ytick"><text text-anchor="end" x="79" y="4.199999999999999" style="font-family: 'Open Sans', verdana, arial, sans-serif; font-size: 12px; fill: rgb(42, 63, 95); fill-opacity: 1; white-space: pre; opacity: 1;" transform="translate(0,340.52)">0.2</text></g><g class="ytick"><text text-anchor="end" x="79" y="4.199999999999999" style="font-family: 'Open Sans', verdana, arial, sans-serif; font-size: 12px; fill: rgb(42, 63, 95); fill-opacity: 1; white-space: pre; opacity: 1;" transform="translate(0,285.65)">0.4</text></g><g class="ytick"><text text-anchor="end" x="79" y="4.199999999999999" style="font-family: 'Open Sans', verdana, arial, sans-serif; font-size: 12px; fill: rgb(42, 63, 95); fill-opacity: 1; white-space: pre; opacity: 1;" transform="translate(0,230.78)">0.6</text></g><g class="ytick"><text text-anchor="end" x="79" y="4.199999999999999" style="font-family: 'Open Sans', verdana, arial, sans-serif; font-size: 12px; fill: rgb(42, 63, 95); fill-opacity: 1; white-space: pre; opacity: 1;" transform="translate(0,175.91)">0.8</text></g><g class="ytick"><text text-anchor="end" x="79" y="4.199999999999999" style="font-family: 'Open Sans', verdana, arial, sans-serif; font-size: 12px; fill: rgb(42, 63, 95); fill-opacity: 1; white-space: pre; opacity: 1;" transform="translate(0,121.03)">1</text></g></g><g class="overaxes-above"/></g></g><g class="polarlayer"/><g class="smithlayer"/><g class="ternarylayer"/><g class="geolayer"/><g class="funnelarealayer"/><g class="pielayer"/><g class="iciclelayer"/><g class="treemaplayer"/><g class="sunburstlayer"/><g class="glimages"/><defs id="topdefs-01dcf8"><g class="clips"/></defs><g class="layer-above"><g class="imagelayer"/><g class="shapelayer"/></g><g class="infolayer"><g class="g-gtitle"/><g class="g-xtitle"/><g class="g-ytitle"/></g></svg>